<?xml version="1.0" encoding="UTF-8"?>
<svg xmlns="http://www.w3.org/2000/svg" version="1.1" width="512px" height="512px" style="shape-rendering:geometricPrecision; text-rendering:geometricPrecision; image-rendering:optimizeQuality; fill-rule:evenodd; clip-rule:evenodd" xmlns:xlink="http://www.w3.org/1999/xlink">
<g><path style="opacity:0.949" fill="#fff" d="M -0.5,176.5 C -0.5,167.167 -0.5,157.833 -0.5,148.5C 9.43833,97.3959 40.105,67.2292 91.5,58C 134.511,54.5927 168.344,70.4261 193,105.5C 196.797,111.258 199.63,117.425 201.5,124C 199.293,133.873 193.293,137.54 183.5,135C 181.714,134.215 180.214,133.049 179,131.5C 160.272,94.2167 130.106,78.05 88.5,83C 47.9412,93.782 26.2746,120.115 23.5,162C 24.968,196.127 40.968,220.794 71.5,236C 79.3828,242.388 80.0495,249.388 73.5,257C 69.8646,259.33 66.0313,259.83 62,258.5C 26.9234,241.935 6.09005,214.602 -0.5,176.5 Z"/></g>
<g><path style="opacity:0.952" fill="#fff" d="M 511.5,273.5 C 511.5,283.833 511.5,294.167 511.5,304.5C 507.77,328.963 498.27,350.963 483,370.5C 465.5,389.333 447.333,407.5 428.5,425C 408.907,440.622 386.574,449.956 361.5,453C 280.833,453.667 200.167,453.667 119.5,453C 96.7211,444.618 88.2211,428.451 94,404.5C 100.576,384.612 114.076,372.112 134.5,367C 166.15,361.892 197.816,356.892 229.5,352C 177,299.5 124.5,247 72,194.5C 57.2869,176.363 55.6202,157.029 67,136.5C 84.7156,116.091 105.549,112.258 129.5,125C 145.319,139.985 160.985,155.152 176.5,170.5C 188.628,144.271 208.628,135.104 236.5,143C 239.912,144.455 243.079,146.288 246,148.5C 257.055,122.055 276.555,112.222 304.5,119C 308.446,120.306 312.112,122.139 315.5,124.5C 327.602,98.6173 347.602,89.1173 375.5,96C 379.327,97.746 382.993,99.746 386.5,102C 419.702,137.534 452.535,173.367 485,209.5C 499.105,228.703 507.938,250.036 511.5,273.5 Z M 354.5,117.5 C 363.144,116.324 370.31,118.991 376,125.5C 404.63,157.799 433.63,189.799 463,221.5C 488.938,254.728 494.271,291.061 479,330.5C 475.171,338.163 470.837,345.496 466,352.5C 448.167,371.667 429.667,390.167 410.5,408C 394.758,419.695 377.092,426.695 357.5,429C 280.167,429.667 202.833,429.667 125.5,429C 121.104,428.27 118.27,425.77 117,421.5C 116.855,402.973 126.022,392.473 144.5,390C 182.5,384 220.5,378 258.5,372C 267.171,368.476 269.671,362.309 266,353.5C 206.667,294.167 147.333,234.833 88,175.5C 79.5988,159.59 83.7655,148.424 100.5,142C 105.894,140.967 110.894,141.967 115.5,145C 155.167,184.667 194.833,224.333 234.5,264C 241.444,269.055 247.944,268.555 254,262.5C 255.52,258.625 255.854,254.625 255,250.5C 238.362,232.862 221.362,215.528 204,198.5C 196.408,187.427 197.575,177.26 207.5,168C 215.123,163.102 222.79,162.768 230.5,167C 248.472,183.971 266.138,201.304 283.5,219C 296.087,223.421 302.254,218.921 302,205.5C 301.333,204.167 300.667,202.833 300,201.5C 290.303,192.137 280.97,182.47 272,172.5C 265.759,158.96 269.259,148.793 282.5,142C 290.748,139.562 298.082,141.228 304.5,147C 313.565,156.734 323.231,165.734 333.5,174C 346.921,174.254 351.421,168.087 347,155.5C 335.508,143.778 335.675,132.278 347.5,121C 349.925,119.787 352.259,118.621 354.5,117.5 Z"/></g>
</svg>
